<?xml version="1.0" standalone="no"?>
<!DOCTYPE svg PUBLIC "-//W3C//DTD SVG 20010904//EN"
 "http://www.w3.org/TR/2001/REC-SVG-20010904/DTD/svg10.dtd">
<svg version="1.0" xmlns="http://www.w3.org/2000/svg"
 width="800.000000pt" height="800.000000pt" viewBox="0 0 800.000000 800.000000"
 preserveAspectRatio="xMidYMid meet">

<g transform="translate(0.000000,800.000000) scale(0.100000,-0.100000)"
fill="#000000" stroke="none">
<path d="M0 4000 l0 -4000 4000 0 4000 0 0 4000 0 4000 -4000 0 -4000 0 0
-4000z m4050 2335 c105 -54 91 -178 -26 -229 -31 -14 -31 -15 -23 -62 4 -27 8
-102 8 -167 1 -79 6 -127 15 -145 7 -15 16 -38 20 -52 3 -14 -3 -7 -13 15
l-20 40 -1 -70 c-1 -38 -1 -262 0 -496 1 -409 -3 -509 -21 -464 -4 11 -8 329
-8 706 l-1 687 -30 12 c-42 17 -71 62 -72 108 -1 98 89 160 172 117z m-196
-206 c-90 -96 -527 -412 -626 -453 -92 -39 -698 -111 -698 -83 0 4 26 7 58 7
138 1 521 53 635 86 25 8 376 245 461 311 39 31 97 80 128 110 61 57 90 72 42
22z m328 -45 c86 -78 181 -147 323 -236 244 -153 225 -144 395 -177 184 -36
349 -60 416 -63 41 -1 43 -2 14 -5 -57 -7 -235 18 -537 76 -65 13 -75 18 -264
136 -136 86 -221 146 -286 201 -12 11 -32 28 -45 38 -57 47 -97 86 -88 86 5 0
38 -25 72 -56z m-257 -33 c-21 -43 -29 -39 -8 4 9 19 18 33 21 31 2 -2 -4 -18
-13 -35z m-36 -63 c-22 -42 -87 -134 -105 -148 -9 -8 4 14 30 50 27 36 54 77
62 93 8 15 17 27 20 27 2 0 -1 -10 -7 -22z m364 -203 c18 -13 29 -25 24 -25
-12 0 -96 81 -119 114 -11 17 -2 10 21 -16 23 -26 56 -59 74 -73z m-497 14
c-20 -29 -198 -229 -203 -229 -5 0 16 25 131 158 78 90 102 113 72 71z m634
-116 c0 -6 -33 15 -57 36 -40 33 -25 33 17 0 22 -18 40 -34 40 -36z m-464 -9
c-41 -114 -88 -198 -145 -257 -33 -34 -70 -73 -83 -87 -12 -15 -18 -19 -13
-10 6 8 43 51 82 95 66 75 130 189 158 283 4 13 9 22 11 19 2 -2 -2 -21 -10
-43z m-1450 2 c19 -19 35 -41 35 -50 1 -9 2 -22 3 -28 1 -7 -4 -26 -12 -42
-11 -23 -11 -30 -1 -37 7 -4 121 -115 253 -246 133 -131 282 -277 331 -325
112 -107 340 -345 361 -375 35 -52 -10 -15 -146 122 -80 80 -148 145 -151 145
-17 0 -33 -68 -54 -239 -11 -85 -12 -118 -3 -128 6 -7 57 -38 113 -68 l103
-55 217 2 217 3 27 50 27 50 -100 38 c-129 50 -144 53 -152 33 -13 -34 -73 -7
-74 33 0 14 -118 233 -152 283 -10 14 -18 38 -18 52 0 26 -1 26 -87 28 l-88 2
87 3 87 4 25 77 c35 104 34 110 -11 115 l-38 4 43 1 c43 2 43 2 71 65 25 55
58 104 143 211 30 38 27 12 -8 -64 -24 -52 -40 -107 -51 -177 -9 -56 -19 -100
-23 -98 -11 7 -31 -71 -23 -91 5 -14 3 -16 -11 -11 -15 6 -16 2 -11 -31 5 -27
4 -33 -4 -22 -9 13 -11 12 -11 -4 0 -11 6 -27 13 -35 12 -15 102 -209 126
-274 10 -24 15 -28 43 -24 33 4 99 -26 201 -90 49 -31 63 -21 71 55 4 31 11
80 16 107 5 28 12 68 16 89 7 46 24 32 24 -21 0 -40 9 -46 79 -49 82 -4 88 -1
96 57 4 28 9 49 11 46 7 -7 21 -126 14 -122 -4 3 -16 -5 -26 -16 -10 -11 -33
-29 -51 -40 -29 -18 -33 -26 -33 -65 l0 -45 65 2 c36 1 68 -1 71 -4 8 -7 -18
-77 -28 -77 -4 0 -17 -17 -28 -37 -11 -21 -34 -54 -50 -74 -26 -30 -32 -47
-38 -115 -6 -67 -10 -79 -25 -76 -10 2 -17 -3 -17 -13 0 -13 -12 -15 -72 -14
-66 2 -74 4 -99 32 -16 17 -31 44 -35 59 -4 22 -10 28 -22 23 -10 -4 -57 -17
-107 -30 -107 -28 -243 -71 -304 -97 -51 -21 -109 -69 -104 -85 4 -10 -335
-128 -344 -120 -3 3 110 93 156 124 3 2 -5 12 -17 23 -20 19 -37 20 -263 22
-181 2 -243 0 -246 -9 -3 -9 -12 -9 -30 -2 -22 8 -375 15 -530 11 -47 -2 -52
-4 -61 -32 -15 -43 -67 -72 -117 -66 -105 13 -132 157 -38 205 56 29 153 -10
153 -61 0 -19 6 -20 88 -18 48 1 92 1 97 0 36 -9 368 4 415 16 68 17 84 17 45
-1 -26 -12 13 -13 305 -14 l334 -1 78 41 c63 32 105 45 211 65 73 13 166 32
209 41 l76 16 4 51 c2 28 3 53 2 55 -4 4 -370 -18 -406 -25 -16 -3 -28 -10
-28 -16 0 -5 -6 -16 -14 -23 -11 -11 -32 -1 -132 64 -65 43 -134 92 -153 108
l-34 29 26 75 c14 41 42 110 62 154 26 55 37 94 37 125 l0 45 7 -40 6 -40 23
38 22 39 -22 28 c-28 35 -38 37 -39 8 -1 -17 -4 -13 -10 12 -8 26 -48 72 -155
176 -79 77 -144 139 -144 138 0 -1 7 -18 15 -37 26 -62 16 -55 -20 13 -24 45
-72 105 -159 195 l-125 130 -34 -13 c-46 -17 -67 -15 -105 8 -43 26 -65 76
-52 120 17 58 45 78 114 79 30 1 45 -6 72 -33z m3145 17 c37 -22 61 -72 53
-111 -13 -65 -88 -110 -152 -92 l-37 10 -130 -134 c-121 -125 -132 -139 -155
-206 -14 -39 -26 -67 -28 -61 -2 5 4 26 12 46 9 21 16 44 16 52 0 8 -69 -51
-153 -132 -147 -140 -154 -147 -155 -187 -2 -49 -12 -65 -12 -19 0 18 -4 31
-9 29 -7 -2 -158 -141 -255 -234 -5 -5 -4 0 2 11 14 25 285 300 573 580 281
274 283 276 268 309 -9 19 -20 26 -43 27 -28 2 -28 2 -5 6 18 3 29 14 38 38
27 75 107 106 172 68z m-1180 -50 c13 -16 12 -17 -3 -4 -10 7 -18 15 -18 17 0
8 8 3 21 -13z m-308 -128 c31 -40 31 -40 3 -15 -26 23 -77 109 -76 127 1 4 10
-10 22 -32 11 -22 34 -58 51 -80z m1240 58 c-7 -2 -21 -2 -30 0 -10 3 -4 5 12
5 17 0 24 -2 18 -5z m-1838 -13 c-3 -5 -12 -10 -18 -10 -7 0 -6 4 3 10 19 12
23 12 15 0z m1763 3 c-10 -2 -26 -2 -35 0 -10 3 -2 5 17 5 19 0 27 -2 18 -5z
m-105 -10 c-7 -2 -21 -2 -30 0 -10 3 -4 5 12 5 17 0 24 -2 18 -5z m-566 -9
c-3 -3 -12 -4 -19 -1 -8 3 -5 6 6 6 11 1 17 -2 13 -5z m480 -1 c-20 -2 -52 -2
-70 0 -17 2 0 4 38 4 39 0 53 -2 32 -4z m-239 -10 c-10 -2 -28 -2 -40 0 -13 2
-5 4 17 4 22 1 32 -1 23 -4z m-1438 -23 c-8 -5 -19 -10 -25 -10 -5 0 -3 5 5
10 8 5 20 10 25 10 6 0 3 -5 -5 -10z m-70 -25 c0 -6 -56 -35 -67 -35 -4 1 8 9
27 20 39 22 40 22 40 15z m2134 -39 c-3 -15 -8 -25 -11 -23 -2 3 -1 17 3 31 3
15 8 25 11 23 2 -3 1 -17 -3 -31z m-1278 -28 l29 -33 -32 29 c-31 28 -38 36
-30 36 2 0 16 -15 33 -32z m-1815 -180 c-12 -107 -90 -427 -117 -480 -53 -103
-251 -380 -374 -521 -115 -134 -119 -124 -5 13 133 161 342 457 372 527 39 93
104 389 116 528 9 102 13 125 15 85 2 -30 -1 -99 -7 -152z m839 193 c-8 -5
-26 -11 -40 -15 -21 -5 -20 -3 5 9 32 15 60 20 35 6z m1260 -127 c24 -40 36
-78 51 -165 11 -63 26 -140 34 -172 l15 -58 -57 -122 c-31 -67 -64 -142 -73
-167 -15 -39 -25 -49 -77 -75 -129 -65 -213 -96 -213 -78 0 4 41 31 91 58 51
28 102 59 114 70 12 12 45 81 74 155 45 117 52 144 52 206 0 114 -39 305 -82
403 -10 24 -19 48 -19 54 0 16 53 -49 90 -109z m1088 -114 c25 -118 54 -238
81 -332 16 -57 32 -114 35 -128 10 -43 200 -324 319 -470 l69 -85 -66 70 c-37
39 -82 93 -101 120 -210 300 -215 308 -241 394 -37 122 -101 384 -113 468 -6
39 -10 100 -10 135 2 57 3 53 10 -32 4 -52 12 -115 17 -140z m-2421 214 c-3
-3 -12 -4 -19 -1 -8 3 -5 6 6 6 11 1 17 -2 13 -5z m-334 -11 c-7 -2 -19 -2
-25 0 -7 3 -2 5 12 5 14 0 19 -2 13 -5z m284 1 c-3 -3 -12 -4 -19 -1 -8 3 -5
6 6 6 11 1 17 -2 13 -5z m-164 -11 c-18 -2 -48 -2 -65 0 -18 2 -4 4 32 4 36 0
50 -2 33 -4z m110 0 c-13 -2 -33 -2 -45 0 -13 2 -3 4 22 4 25 0 35 -2 23 -4z
m1237 -48 c13 -14 21 -25 18 -25 -2 0 -15 11 -28 25 -13 14 -21 25 -18 25 2 0
15 -11 28 -25z m-1762 -20 c-3 -3 -9 2 -12 12 -6 14 -5 15 5 6 7 -7 10 -15 7
-18z m1132 -28 c0 -2 -10 -12 -22 -23 l-23 -19 19 23 c18 21 26 27 26 19z
m-1102 -82 c0 -16 -2 -15 -8 5 -4 14 -8 34 -8 45 0 16 2 15 8 -5 4 -14 8 -34
8 -45z m312 39 c0 -2 -9 0 -20 6 -11 6 -20 13 -20 16 0 2 9 0 20 -6 11 -6 20
-13 20 -16z m2170 7 c-8 -5 -33 -12 -55 -15 l-40 -6 45 14 c53 17 71 19 50 7z
m-1106 -33 c-62 -69 -204 -187 -255 -213 -47 -25 -34 -12 36 34 36 24 104 81
152 127 92 87 117 107 67 52z m1491 -23 c-4 -25 -9 -44 -12 -41 -2 2 -1 25 2
51 4 25 9 44 12 41 2 -2 1 -25 -2 -51z m-1305 -52 c0 -8 -9 0 -50 45 l-45 47
48 -45 c26 -24 47 -45 47 -47z m803 80 c-7 -2 -19 -2 -25 0 -7 3 -2 5 12 5 14
0 19 -2 13 -5z m-60 -10 c-7 -2 -21 -2 -30 0 -10 3 -4 5 12 5 17 0 24 -2 18
-5z m-90 -10 c-18 -2 -48 -2 -65 0 -18 2 -4 4 32 4 36 0 50 -2 33 -4z m-2206
-45 c-3 -8 -6 -5 -6 6 -1 11 2 17 5 13 3 -3 4 -12 1 -19z m543 -18 c20 -6 21
-8 5 -8 -11 0 -29 3 -40 8 -25 11 1 11 35 0z m-533 -32 c-3 -7 -5 -2 -5 12 0
14 2 19 5 13 2 -7 2 -19 0 -25z m641 15 c-16 -2 -40 -2 -55 0 -16 2 -3 4 27 4
30 0 43 -2 28 -4z m992 -50 c0 -7 -58 36 -66 49 -4 7 9 -1 29 -16 20 -16 37
-30 37 -33z m1197 10 c-3 -10 -5 -2 -5 17 0 19 2 27 5 18 2 -10 2 -26 0 -35z
m-2820 -25 c-3 -7 -5 -2 -5 12 0 14 2 19 5 13 2 -7 2 -19 0 -25z m242 -18 c0
-10 -3 -8 -9 5 -12 27 -12 43 0 25 5 -8 9 -22 9 -30z m1456 0 c13 -6 15 -9 5
-9 -8 0 -22 4 -30 9 -18 12 -2 12 25 0z m1112 -62 c-2 -13 -4 -3 -4 22 0 25 2
35 4 23 2 -13 2 -33 0 -45z m-2800 20 c-3 -8 -6 -5 -6 6 -1 11 2 17 5 13 3 -3
4 -12 1 -19z m240 0 c-3 -8 -6 -5 -6 6 -1 11 2 17 5 13 3 -3 4 -12 1 -19z
m1590 -4 c-3 -3 -12 -4 -19 -1 -8 3 -5 6 6 6 11 1 17 -2 13 -5z m710 -26 c-3
-7 -5 -2 -5 12 0 14 2 19 5 13 2 -7 2 -19 0 -25z m-2289 -202 l-5 -213 -30
-44 c-79 -115 -192 -213 -317 -276 -37 -19 -70 -33 -71 -31 -2 2 33 22 78 45
97 50 198 132 260 211 71 92 70 87 75 315 3 114 7 207 10 207 3 0 3 -96 0
-214z m-283 100 c-25 -41 -53 -80 -62 -88 -9 -7 9 25 40 72 31 47 57 92 58
100 0 10 2 11 6 3 2 -7 -16 -46 -42 -87z m2562 47 c-3 -10 -5 -4 -5 12 0 17 2
24 5 18 2 -7 2 -21 0 -30z m270 -5 c-3 -7 -5 -2 -5 12 0 14 2 19 5 13 2 -7 2
-19 0 -25z m-280 -125 c-2 -21 -4 -4 -4 37 0 41 2 58 4 38 2 -21 2 -55 0 -75z
m332 41 c12 -19 16 -32 11 -29 -11 7 -43 65 -36 65 2 0 13 -16 25 -36z m-1705
-46 c-3 -18 -16 -52 -27 -76 -20 -40 -20 -43 -4 -59 14 -14 17 -15 17 -3 1 19
24 -10 52 -65 l20 -40 -57 58 c-31 31 -63 57 -71 57 -8 0 -14 6 -14 13 0 12
81 147 88 147 2 0 0 -15 -4 -32z m493 -31 c15 -29 26 -61 24 -72 -3 -21 -49
-78 -88 -108 -20 -16 -18 -10 12 40 39 64 42 86 20 156 -18 59 -3 52 32 -16z
m657 -20 c16 -109 37 -235 42 -253 5 -18 -8 -29 -83 -73 -48 -29 -109 -65
-135 -81 l-47 -29 -196 15 c-184 13 -253 25 -215 38 8 2 101 7 207 10 211 5
206 4 349 90 l59 36 -3 77 c-2 43 -7 107 -12 143 -6 36 -10 74 -9 85 0 19 1
19 19 -3 11 -13 21 -38 24 -55z m601 27 c9 -15 12 -23 6 -20 -11 7 -35 46 -28
46 3 0 12 -12 22 -26z m-3014 -12 c-5 -10 -18 -25 -27 -33 -11 -9 -9 -2 6 19
26 35 36 42 21 14z m2646 -54 c-2 -13 -4 -5 -4 17 -1 22 1 32 4 23 2 -10 2
-28 0 -40z m424 -15 c13 -16 12 -17 -3 -4 -10 7 -18 15 -18 17 0 8 8 3 21 -13z
m-3131 -17 c0 -2 -8 -10 -17 -17 -16 -13 -17 -12 -4 4 13 16 21 21 21 13z
m2717 -18 c-3 -8 -6 -5 -6 6 -1 11 2 17 5 13 3 -3 4 -12 1 -19z m-2772 -50
c-14 -18 -49 -55 -77 -83 l-51 -50 43 50 c60 68 104 115 108 115 2 0 -9 -15
-23 -32z m3245 2 c12 -16 19 -30 16 -30 -2 0 -14 14 -26 30 -12 17 -19 30 -16
30 2 0 14 -13 26 -30z m-424 -107 c-5 -5 -36 86 -35 101 0 6 9 -13 20 -43 10
-30 17 -56 15 -58z m523 -30 c40 -55 40 -56 6 -18 -35 39 -60 75 -52 75 3 0
23 -26 46 -57z m-3469 -6 c0 -2 -14 -16 -32 -33 l-31 -29 23 33 c20 27 40 42
40 29z m2991 -44 c13 -16 12 -17 -3 -4 -10 7 -18 15 -18 17 0 8 8 3 21 -13z
m-3067 -25 c-5 -7 -22 -24 -38 -38 -16 -14 -40 -36 -53 -50 -13 -14 -23 -20
-23 -15 0 8 108 113 118 115 2 0 0 -6 -4 -12z m3126 -14 c0 -2 -9 0 -20 6 -11
6 -20 13 -20 16 0 2 9 0 20 -6 11 -6 20 -13 20 -16z m505 -14 c21 -22 37 -40
34 -40 -3 0 -23 18 -44 40 -21 22 -37 40 -34 40 3 0 23 -18 44 -40z m-430 -38
c-3 -3 -11 0 -18 7 -9 10 -8 11 6 5 10 -3 15 -9 12 -12z m605 -139 c0 -7 -114
92 -131 114 -8 10 19 -11 59 -46 39 -34 72 -65 72 -68z m-540 107 c8 -5 11
-10 5 -10 -5 0 -17 5 -25 10 -8 5 -10 10 -5 10 6 0 17 -5 25 -10z m-2494 -13
c-10 -7 -46 -30 -80 -53 -60 -40 -116 -73 -105 -61 7 9 127 88 164 109 34 19
50 23 21 5z m-927 -33 c-18 -20 -47 -45 -64 -56 -16 -11 -3 5 30 36 68 63 85
73 34 20z m401 -38 c0 -2 -7 -7 -16 -10 -8 -3 -12 -2 -9 4 6 10 25 14 25 6z
m2040 -27 c120 -20 211 -43 246 -60 15 -8 19 -17 16 -40 -3 -21 0 -29 11 -29
8 0 17 -7 21 -15 7 -19 -8 -19 -24 -1 -15 19 -77 40 -108 38 -13 -1 -21 2 -18
6 3 5 -62 30 -145 57 -157 51 -211 76 -148 68 19 -3 86 -13 149 -24z m-2090 1
c-8 -5 -19 -10 -25 -10 -5 0 -3 5 5 10 8 5 20 10 25 10 6 0 3 -5 -5 -10z m-41
-14 c-9 -9 -158 -66 -171 -65 -7 0 10 9 37 19 28 10 66 25 85 34 34 15 58 21
49 12z m3847 -17 c52 3 79 -10 104 -52 30 -49 26 -91 -14 -135 -32 -34 -39
-37 -90 -37 l-55 0 -40 -55 c-22 -30 -60 -83 -85 -116 -75 -103 -169 -252
-244 -389 -60 -111 -76 -151 -107 -269 -20 -77 -47 -201 -60 -275 -13 -75 -24
-124 -24 -108 -2 46 27 205 64 357 37 152 68 223 183 420 63 108 128 204 230
340 39 52 72 102 72 111 0 15 -25 34 -40 31 -3 0 -4 14 -2 31 l4 32 -79 -5
c-43 -4 -89 -12 -103 -19 l-25 -12 25 21 25 21 -60 -5 c-92 -9 -411 -7 -915 5
l-45 1 44 9 c24 5 95 7 157 6 63 -1 115 1 117 4 1 3 43 2 92 -2 95 -7 110 -5
101 17 -3 9 0 11 12 7 9 -4 19 -10 22 -13 7 -10 522 -22 516 -12 -3 5 22 6 54
4 56 -4 60 -3 69 20 5 13 16 30 24 37 9 7 13 20 10 28 -5 12 -3 14 7 8 8 -5
33 -8 56 -6z m-3576 -44 c-19 -7 -42 -13 -50 -13 -8 0 1 6 20 13 19 7 42 13
50 13 8 0 -1 -6 -20 -13z m1120 -5 c0 -5 -26 -28 -57 -51 -95 -69 -130 -108
-174 -196 l-42 -84 6 -197 c3 -108 10 -213 16 -232 5 -19 15 -66 21 -105 6
-38 13 -81 16 -95 3 -14 -10 13 -29 60 -54 135 -85 200 -96 200 -5 0 -14 -8
-20 -17 -5 -10 -69 -78 -143 -151 -107 -106 -130 -134 -118 -142 12 -8 10 -10
-10 -10 -18 0 -62 -36 -159 -130 -74 -72 -130 -130 -123 -130 6 0 22 4 36 10
46 17 28 2 -28 -23 -38 -18 -90 -61 -190 -159 l-136 -134 14 -30 c29 -58 -14
-144 -78 -156 -65 -13 -126 37 -126 103 0 56 18 87 62 106 l38 17 0 107 c0 58
-7 146 -15 195 -20 112 -92 405 -113 459 -26 67 -109 193 -216 328 -89 113
-159 211 -129 182 31 -31 225 -281 265 -341 88 -135 106 -178 159 -404 47
-196 52 -229 58 -374 l6 -159 29 -10 c29 -10 34 -6 158 121 86 88 128 139 129
154 0 13 5 32 10 43 7 15 8 12 3 -12 -3 -18 -3 -33 0 -33 3 0 76 68 161 152
l155 151 1 96 c1 53 4 83 6 66 1 -16 6 -54 9 -83 l5 -52 22 17 c12 10 56 53
97 96 68 72 75 82 81 130 6 52 6 52 8 10 0 -24 3 -43 6 -43 3 0 21 14 40 32
32 28 35 36 34 82 -5 129 3 342 13 359 14 26 120 157 144 178 23 20 175 109
186 109 5 0 8 -4 8 -10z m-1643 -26 c-3 -3 -12 -4 -19 -1 -8 3 -5 6 6 6 11 1
17 -2 13 -5z m2091 -20 c13 -3 20 -9 17 -14 -4 -6 -11 -7 -17 -4 -8 5 -9 1 -5
-10 4 -10 3 -15 -3 -11 -13 8 -31 -30 -24 -52 4 -12 3 -14 -3 -6 -6 9 -14 4
-28 -20 -10 -17 -21 -34 -24 -37 -4 -3 -26 -29 -49 -57 l-44 -53 -6 -147 c-5
-110 -10 -147 -19 -145 -8 1 -13 -9 -14 -25 l-1 -28 -8 30 c-4 17 -8 23 -9 15
-1 -12 -12 -14 -52 -11 -44 3 -51 1 -46 -12 4 -11 -7 -7 -32 11 -21 15 -36 31
-33 36 3 5 0 6 -6 2 -6 -4 -25 6 -41 21 -27 25 -32 40 -46 125 -21 138 -20
148 31 251 60 121 82 155 100 159 20 4 330 -12 362 -18z m196 -12 c-8 13 -1 9
49 -32 10 -8 27 -35 38 -60 11 -25 31 -67 45 -95 25 -47 26 -54 17 -130 l-10
-80 -15 35 c-8 19 -18 59 -22 89 -9 72 -54 166 -104 220 -23 24 -39 48 -35 54
3 6 1 7 -5 3 -6 -3 -16 3 -22 14 -10 19 -8 19 30 -5 23 -15 39 -21 34 -13z
m-2184 -62 c8 -5 11 -10 5 -10 -5 0 -17 5 -25 10 -8 5 -10 10 -5 10 6 0 17 -5
25 -10z m65 -30 c3 -6 -1 -7 -9 -4 -18 7 -21 14 -7 14 6 0 13 -4 16 -10z m45
-20 c8 -5 11 -10 5 -10 -5 0 -17 5 -25 10 -8 5 -10 10 -5 10 6 0 17 -5 25 -10z
m433 -49 c7 -8 -7 -2 -30 14 -24 15 -43 30 -43 32 0 7 61 -31 73 -46z m2617
44 c0 -2 -10 -9 -22 -15 -22 -11 -22 -10 -4 4 21 17 26 19 26 11z m-2950 -50
c0 -3 -18 4 -40 15 -22 11 -40 23 -40 25 0 3 18 -4 40 -15 22 -11 40 -23 40
-25z m3610 41 c0 -2 -8 -10 -17 -17 -16 -13 -17 -12 -4 4 13 16 21 21 21 13z
m-3985 -16 c3 -6 -1 -7 -9 -4 -18 7 -21 14 -7 14 6 0 13 -4 16 -10z m3635 -10
c-8 -5 -19 -10 -25 -10 -5 0 -3 5 5 10 8 5 20 10 25 10 6 0 3 -5 -5 -10z
m-3190 -56 c0 -2 -13 2 -30 11 -16 9 -30 18 -30 21 0 2 14 -2 30 -11 17 -9 30
-18 30 -21z m3480 32 c0 -2 -8 -10 -17 -17 -16 -13 -17 -12 -4 4 13 16 21 21
21 13z m-3770 -92 c14 -15 -3 -4 -37 26 -35 29 -63 55 -63 57 0 8 74 -54 100
-83z m644 39 c8 -19 2 -16 -25 13 -23 25 -23 26 -2 13 13 -7 25 -19 27 -26z
m-274 -29 c0 -2 -9 0 -20 6 -11 6 -20 13 -20 16 0 2 9 0 20 -6 11 -6 20 -13
20 -16z m3340 23 c0 -1 -24 -25 -52 -52 l-53 -50 50 53 c46 48 55 57 55 49z
m-2960 -94 c0 -8 -9 0 -50 45 l-45 47 48 -45 c26 -24 47 -45 47 -47z m2559 74
c-2 -1 -13 -9 -24 -17 -19 -14 -19 -14 -6 3 7 9 18 17 24 17 6 0 8 -1 6 -3z
m-3253 -79 l29 -33 -32 29 c-18 17 -33 31 -33 33 0 8 8 1 36 -29z m478 -45
l17 -28 -21 25 c-12 14 -34 35 -48 48 l-27 24 31 -21 c17 -11 39 -33 48 -48z
m-414 -28 c19 -19 32 -35 29 -35 -3 0 -20 16 -39 35 -19 19 -32 35 -29 35 3 0
20 -16 39 -35z m3439 6 c-7 -10 -21 -24 -33 -31 -15 -9 -12 -3 8 19 34 35 41
39 25 12z m-2940 -100 c17 -33 31 -63 31 -67 0 -5 -16 20 -35 55 -19 35 -42
73 -52 85 -18 21 -18 21 3 3 12 -10 36 -44 53 -76z m-398 -33 c35 -45 58 -79
52 -75 -7 4 -33 36 -59 70 -26 34 -51 68 -57 75 -5 6 -7 12 -4 12 2 0 33 -37
68 -82z m618 42 c0 -10 -3 -8 -9 5 -12 27 -12 43 0 25 5 -8 9 -22 9 -30z
m2671 37 c0 -2 -10 -12 -22 -23 l-23 -19 19 23 c18 21 26 27 26 19z m-2403
-39 c-3 -8 -6 -5 -6 6 -1 11 2 17 5 13 3 -3 4 -12 1 -19z m-260 -40 c-3 -8 -6
-5 -6 6 -1 11 2 17 5 13 3 -3 4 -12 1 -19z m2593 -12 c0 -2 -8 -10 -17 -17
-16 -13 -17 -12 -4 4 13 16 21 21 21 13z m-2551 -166 c0 -14 -7 2 -14 35 -23
102 -26 133 -5 60 11 -38 19 -81 19 -95z m228 128 c-3 -7 -5 -2 -5 12 0 14 2
19 5 13 2 -7 2 -19 0 -25z m-438 -73 c0 -11 -7 0 -15 25 -17 56 -17 64 1 25 8
-16 14 -39 14 -50z m2731 71 c0 -2 -8 -10 -17 -17 -16 -13 -17 -12 -4 4 13 16
21 21 21 13z m-639 -43 c-12 -20 -14 -14 -5 12 4 9 9 14 11 11 3 -2 0 -13 -6
-23z m-2470 -10 c13 -16 12 -17 -3 -4 -17 13 -22 21 -14 21 2 0 10 -8 17 -17z
m2450 -44 c-5 -13 -10 -19 -10 -12 -1 15 10 45 15 40 3 -2 0 -15 -5 -28z
m-2401 -19 c17 -22 29 -40 27 -40 -3 0 -20 18 -37 40 -17 22 -29 40 -27 40 3
0 20 -18 37 -40z m2119 6 c-3 -3 -11 5 -18 17 -13 21 -12 21 5 5 10 -10 16
-20 13 -22z m-1782 -118 c-2 -24 -4 -7 -4 37 0 44 2 63 4 43 2 -21 2 -57 0
-80z m1829 76 c1 -9 0 -13 -4 -10 -3 4 -7 14 -8 22 -1 9 0 13 4 10 3 -4 7 -14
8 -22z m-676 -115 c0 -88 3 -119 13 -119 9 0 9 -2 0 -8 -10 -6 -11 -130 -8
-557 3 -301 7 -551 10 -553 3 -3 15 3 27 14 17 14 19 15 9 2 -14 -18 -8 -38
12 -38 21 0 47 -55 47 -98 0 -33 -6 -45 -35 -71 -87 -76 -220 3 -183 110 7 21
7 33 -1 43 -9 11 -6 12 13 9 17 -4 26 0 30 14 4 12 15 19 28 19 22 -1 22 -1
20 189 -3 188 -3 191 -32 250 -27 55 -24 55 15 0 12 -18 14 -1 14 132 1 135
-1 153 -16 162 -16 9 -16 10 -2 11 14 0 16 20 13 180 -3 174 -4 182 -26 202
l-23 20 28 -16 c27 -17 27 -16 25 11 -1 15 -1 72 0 126 3 144 22 114 22 -34z
m776 24 c75 -76 77 -77 84 -53 7 21 8 22 9 5 1 -11 7 -30 14 -42 14 -24 338
-363 348 -363 3 0 5 12 3 28 -4 27 -4 27 5 2 18 -54 43 -88 123 -167 l83 -82
48 11 47 11 2 61 2 61 3 -62 c3 -50 7 -63 23 -68 36 -11 70 -63 70 -107 0 -32
-7 -47 -34 -74 -29 -29 -41 -34 -80 -34 -36 0 -50 5 -71 27 -14 15 -25 31 -25
35 0 5 -9 17 -20 28 -11 11 -15 20 -10 20 6 0 10 8 10 18 0 10 5 23 12 30 14
14 -9 40 -229 262 -441 447 -519 530 -499 530 2 0 39 -35 82 -77z m-2219 35
c-3 -8 -6 -5 -6 6 -1 11 2 17 5 13 3 -3 4 -12 1 -19z m2320 -40 c-3 -7 -5 -2
-5 12 0 14 2 19 5 13 2 -7 2 -19 0 -25z m550 -60 c-2 -13 -4 -3 -4 22 0 25 2
35 4 23 2 -13 2 -33 0 -45z m-1652 24 c-3 -3 -11 0 -18 7 -9 10 -8 11 6 5 10
-3 15 -9 12 -12z m1372 -4 c-3 -8 -6 -5 -6 6 -1 11 2 17 5 13 3 -3 4 -12 1
-19z m-2322 -64 c-22 -76 -27 -65 -7 14 9 34 18 58 20 53 2 -6 -4 -36 -13 -67z
m-258 -6 c-3 -7 -5 -2 -5 12 0 14 2 19 5 13 2 -7 2 -19 0 -25z m2850 -90 c-2
-18 -4 -6 -4 27 0 33 2 48 4 33 2 -15 2 -42 0 -60z m-2074 55 c-7 -2 -21 -2
-30 0 -10 3 -4 5 12 5 17 0 24 -2 18 -5z m60 -10 c-7 -2 -19 -2 -25 0 -7 3 -2
5 12 5 14 0 19 -2 13 -5z m-836 -65 c-2 -13 -4 -3 -4 22 0 25 2 35 4 23 2 -13
2 -33 0 -45z m903 52 c11 -8 7 -9 -15 -4 -37 8 -45 14 -19 14 10 0 26 -5 34
-10z m215 -80 c3 -6 -1 -7 -9 -4 -18 7 -21 14 -7 14 6 0 13 -4 16 -10z m56
-47 c13 -16 12 -17 -3 -4 -17 13 -22 21 -14 21 2 0 10 -8 17 -17z m-553 -30
c-21 -2 -57 -2 -80 0 -24 2 -7 4 37 4 44 0 63 -2 43 -4z m150 -10 c-10 -2 -28
-2 -40 0 -13 2 -5 4 17 4 22 1 32 -1 23 -4z m902 -7 c0 -3 -15 -14 -32 -26
l-33 -22 30 26 c31 27 35 29 35 22z m-1683 -28 c-3 -8 -6 -5 -6 6 -1 11 2 17
5 13 3 -3 4 -12 1 -19z m-10 -50 c-3 -8 -6 -5 -6 6 -1 11 2 17 5 13 3 -3 4
-12 1 -19z m2880 -20 c-3 -8 -6 -5 -6 6 -1 11 2 17 5 13 3 -3 4 -12 1 -19z
m-1691 -75 c15 -20 23 -33 16 -29 -13 8 -56 66 -49 66 3 0 17 -17 33 -37z
m-1245 -90 c-12 -20 -14 -14 -5 12 4 9 9 14 11 11 3 -2 0 -13 -6 -23z m1310
10 c13 -16 12 -17 -3 -4 -10 7 -18 15 -18 17 0 8 8 3 21 -13z m89 -117 c0 -6
-7 1 -17 14 -9 14 -26 37 -37 51 -12 14 -4 7 17 -14 20 -22 37 -44 37 -51z
m-1062 77 c-16 -2 -40 -2 -55 0 -16 2 -3 4 27 4 30 0 43 -2 28 -4z m110 0
c-10 -2 -28 -2 -40 0 -13 2 -5 4 17 4 22 1 32 -1 23 -4z m85 -10 c-7 -2 -21
-2 -30 0 -10 3 -4 5 12 5 17 0 24 -2 18 -5z m94 -9 c-3 -3 -12 -4 -19 -1 -8 3
-5 6 6 6 11 1 17 -2 13 -5z m50 -10 c-3 -3 -12 -4 -19 -1 -8 3 -5 6 6 6 11 1
17 -2 13 -5z m60 -10 c-3 -3 -12 -4 -19 -1 -8 3 -5 6 6 6 11 1 17 -2 13 -5z
m874 -17 c-10 -9 -11 -8 -5 6 3 10 9 15 12 12 3 -3 0 -11 -7 -18z m1264 -5
c-3 -3 -11 0 -18 7 -9 10 -8 11 6 5 10 -3 15 -9 12 -12z m-2068 2 c-3 -3 -12
-4 -19 -1 -8 3 -5 6 6 6 11 1 17 -2 13 -5z m1183 -7 c0 -2 -10 -12 -22 -23
l-23 -19 19 23 c18 21 26 27 26 19z m-1917 -54 c-7 -2 -21 -2 -30 0 -10 3 -4
5 12 5 17 0 24 -2 18 -5z m1857 3 c0 -2 -8 -10 -17 -17 -16 -13 -17 -12 -4 4
13 16 21 21 21 13z m-1730 -15 c34 -6 37 -9 15 -9 -16 -1 -48 3 -70 7 -53 11
-5 12 55 2z m2687 3 c-3 -3 -12 -4 -19 -1 -8 3 -5 6 6 6 11 1 17 -2 13 -5z
m-94 -11 c-7 -2 -21 -2 -30 0 -10 3 -4 5 12 5 17 0 24 -2 18 -5z m-2263 -68
c118 -33 232 -70 270 -90 162 -83 580 -329 580 -342 0 -3 -10 1 -22 9 -121 78
-426 252 -548 314 -84 42 -147 63 -315 107 -115 31 -219 58 -230 61 -11 3 -2
3 20 1 22 -3 133 -30 245 -60z m2193 58 c-7 -2 -21 -2 -30 0 -10 3 -4 5 12 5
17 0 24 -2 18 -5z m-65 -10 c-10 -2 -26 -2 -35 0 -10 3 -2 5 17 5 19 0 27 -2
18 -5z m-778 -6 c0 -2 -15 -16 -32 -33 l-33 -29 29 33 c28 30 36 37 36 29z
m685 -8 c-22 -4 -51 -8 -65 -7 -35 1 34 15 75 16 25 0 23 -2 -10 -9z m-1485
-25 c0 -2 -9 0 -20 6 -11 6 -20 13 -20 16 0 2 9 0 20 -6 11 -6 20 -13 20 -16z
m1379 12 c-2 -3 -33 -11 -69 -20 -36 -8 -74 -18 -85 -22 -14 -5 -17 -4 -10 4
6 5 39 17 75 25 68 16 96 20 89 13z m-1348 -33 c13 -16 12 -17 -3 -4 -10 7
-18 15 -18 17 0 8 8 3 21 -13z m1034 -86 c-77 -40 -201 -111 -275 -158 -74
-47 -148 -93 -165 -103 l-30 -19 30 26 c80 68 533 327 570 327 6 0 -53 -33
-130 -73z m-385 3 c-17 -22 -37 -43 -43 -47 -6 -4 6 14 27 40 21 26 40 47 43
47 3 0 -10 -18 -27 -40z m-480 -66 c52 -56 51 -55 -20 11 -100 92 -99 91 -65
67 17 -11 55 -47 85 -78z m370 -74 c-6 -11 -13 -20 -16 -20 -2 0 0 9 6 20 6
11 13 20 16 20 2 0 0 -9 -6 -20z m-270 -41 c15 -28 5 -23 -15 7 -9 15 -12 23
-6 20 6 -4 16 -16 21 -27z"/>
<path d="M3000 4022 c0 -4 4 -13 9 -21 8 -12 16 -12 55 3 25 10 46 19 46 21 0
1 -25 3 -55 3 -30 0 -55 -3 -55 -6z"/>
<path d="M3805 3480 c3 -5 11 -10 16 -10 6 0 7 5 4 10 -3 6 -11 10 -16 10 -6
0 -7 -4 -4 -10z"/>
</g>
</svg>
